# File created by Blade
# Date/Time:  Wed Jan 21 14:28:11 2015
# Frame Rate: 120.000 fps
#------------------------------------------------------
:FULLY-SPECIFIED
:DEGREES
328
root 18.803311 35.527012 -21.240045 -173.069664 -1.336812 -178.311937
Spine -6.414421 -2.974154 0.286578
Head -5.102422 0.286510 2.343997
LeftShoulder -24.020034 2.069591 13.235896
LeftArm -54.708475 6.805537 -88.220850
LeftForeArm 19.546901 -0.000000 -1.967845
LeftHand -4.515758 -0.000000 -44.708937
LeftHandThumb1 -26.253704 0.000000 33.147579
RightShoulder -27.950300 -35.562335 1.558930
RightArm -17.164011 -18.972267 87.938305
RightForeArm -43.170043 -0.000000 7.253538
RightHand 1.710497 -0.000000 46.517531
RightHandThumb1 -24.326973 -0.000000 -32.862282
LeftUpLeg 1.459583 9.294690 2.737796
LeftLeg -6.524324 -0.000000 0.000000
LeftFoot -20.265989 27.637497 -12.719836
LeftToeBase 27.024806 -0.000000 -0.000000
RightUpLeg -0.816487 -12.139843 0.027130
RightLeg -2.717673 -0.000000 0.000000
RightFoot -19.927980 -20.774163 17.115256
RightToeBase 25.520082 -0.000000 -0.000000
329
root 18.803665 35.526498 -21.245485 -173.114266 -1.315956 -178.315218
Spine -6.350282 -2.929806 0.286651
Head -5.149714 0.302196 2.314005
LeftShoulder -24.037250 2.075807 13.207024
LeftArm -54.712287 6.823778 -88.195139
LeftForeArm 19.501197 -0.000000 -1.965290
LeftHand -4.533997 0.000000 -44.672409
LeftHandThumb1 -26.253704 0.000000 33.147579
RightShoulder -27.941940 -35.572609 1.532854
RightArm -17.172231 -18.985121 87.970537
RightForeArm -43.212947 -0.000000 7.298107
RightHand 1.705741 -0.000000 46.471940
RightHandThumb1 -24.326973 -0.000000 -32.862282
LeftUpLeg 1.510398 9.280056 2.747014
LeftLeg -6.504031 -0.000000 0.000000
LeftFoot -20.297057 27.628511 -12.753436
LeftToeBase 26.932988 -0.000000 -0.000000
RightUpLeg -0.768087 -12.116692 0.012074
RightLeg -2.712007 -0.000000 0.000000
RightFoot -19.943290 -20.777819 17.115378
RightToeBase 25.524336 -0.000000 -0.000000
330
root 18.805968 35.525990 -21.251044 -173.166630 -1.302686 -178.302127
Spine -6.274711 -2.908726 0.309478
Head -5.203557 0.296312 2.286508
LeftShoulder -24.067749 2.070046 13.174045
LeftArm -54.738263 6.797838 -88.094973
LeftForeArm 19.465975 0.000000 -1.955475
LeftHand -4.523770 -0.000000 -44.673212
LeftHandThumb1 -26.253704 0.000000 33.147579
RightShoulder -27.923692 -35.593226 1.499046
RightArm -17.157473 -18.931385 87.974149
RightForeArm -43.341387 -0.000000 7.331794
RightHand 1.720023 -0.000000 46.480783
RightHandThumb1 -24.326973 -0.000000 -32.862282
LeftUpLeg 1.564249 9.276402 2.772249
LeftLeg -6.481997 -0.000000 0.000000
LeftFoot -20.318225 27.651512 -12.732800
LeftToeBase 26.996969 -0.000000 -0.000000
RightUpLeg -0.719267 -12.123990 0.016113
RightLeg -2.691063 -0.000000 0.000000
RightFoot -19.946719 -20.749583 17.134567
RightToeBase 25.485981 -0.000000 -0.000000
331
root 18.805059 35.525238 -21.257635 -173.232969 -1.295451 -178.319152
Spine -6.188028 -2.899226 0.298390
Head -5.248616 0.280978 2.276067
LeftShoulder -24.098231 2.092456 13.155995
LeftArm -54.746360 6.733244 -87.949398
LeftForeArm 19.472734 -0.000000 -1.936437
LeftHand -4.536420 -0.000000 -44.689280
LeftHandThumb1 -26.253704 0.000000 33.147579
RightShoulder -27.884108 -35.606258 1.449456
RightArm -17.155144 -18.852645 87.976616
RightForeArm -43.436623 -0.000000 7.348986
RightHand 1.745599 0.000000 46.447938
RightHandThumb1 -24.326973 -0.000000 -32.862282
LeftUpLeg 1.632540 9.251522 2.762342
LeftLeg -6.466573 -0.000000 0.000000
LeftFoot -20.334852 27.703853 -12.748347
LeftToeBase 26.957475 -0.000000 -0.000000
RightUpLeg -0.646516 -12.115869 -0.017988
RightLeg -2.680938 -0.000000 0.000000
RightFoot -19.963693 -20.766597 17.097787
RightToeBase 25.478512 -0.000000 -0.000000
332
root 18.805681 35.524941 -21.264148 -173.292084 -1.287210 -178.316185
Spine -6.114649 -2.871672 0.306826
Head -5.278627 0.255498 2.270635
LeftShoulder -24.136348 2.128722 13.138022
LeftArm -54.742130 6.747386 -87.867245
LeftForeArm 19.402677 -0.000000 -1.925490
LeftHand -4.531926 -0.000000 -44.782321
LeftHandThumb1 -26.253704 0.000000 33.147579
RightShoulder -27.854232 -35.601633 1.418309
RightArm -17.173241 -18.825191 87.986796
RightForeArm -43.498707 -0.000000 7.317361
RightHand 1.786103 0.000000 46.440818
RightHandThumb1 -24.326973 -0.000000 -32.862282
LeftUpLeg 1.691224 9.229270 2.777207
LeftLeg -6.439111 -0.000000 0.000000
LeftFoot -20.365736 27.727709 -12.770509
LeftToeBase 26.938998 -0.000000 -0.000000
RightUpLeg -0.581294 -12.126621 -0.028996
RightLeg -2.673920 -0.000000 0.000000
RightFoot -19.964145 -20.752781 17.087035
RightToeBase 25.485897 -0.000000 -0.000000
333
root 18.805674 35.524705 -21.270384 -173.341010 -1.288467 -178.325165
Spine -6.062056 -2.850574 0.308111
Head -5.269495 0.228989 2.240778
LeftShoulder -24.118784 2.141978 13.155957
LeftArm -54.799967 6.725624 -87.863253
LeftForeArm 19.372363 0.000000 -1.889269
LeftHand -4.544758 -0.000000 -44.742101
LeftHandThumb1 -26.253704 0.000000 33.147579
RightShoulder -27.829716 -35.623525 1.404631
RightArm -17.186499 -18.927937 88.041271
RightForeArm -43.490383 -0.000000 7.254171
RightHand 1.923256 -0.000000 46.549489
RightHandThumb1 -24.326973 -0.000000 -32.862282
LeftUpLeg 1.735359 9.221054 2.778045
LeftLeg -6.408282 -0.000000 0.000000
LeftFoot -20.389807 27.719486 -12.786973
LeftToeBase 26.961262 -0.000000 -0.000000
RightUpLeg -0.522191 -12.122478 -0.048701
RightLeg -2.671426 -0.000000 0.000000
RightFoot -19.981245 -20.764329 17.104581
RightToeBase 25.454051 -0.000000 -0.000000
334
root 18.806410 35.524590 -21.276516 -173.388408 -1.296662 -178.330401
Spine -6.014361 -2.827840 0.313060
Head -5.248409 0.188179 2.208604
LeftShoulder -24.116408 2.158142 13.191120
LeftArm -54.829606 6.743432 -87.867985
LeftForeArm 19.352241 -0.000000 -1.908134
LeftHand -4.557803 -0.000000 -44.810500
LeftHandThumb1 -26.253704 0.000000 33.147579
RightShoulder -27.825799 -35.662393 1.406617
RightArm -17.183079 -19.102132 88.092984
RightForeArm -43.343764 -0.000000 7.180860
RightHand 1.843682 -0.000000 46.453786
RightHandThumb1 -24.326973 -0.000000 -32.862282
LeftUpLeg 1.781599 9.178188 2.789758
LeftLeg -6.381744 -0.000000 0.000000
LeftFoot -20.414283 27.719581 -12.800275
LeftToeBase 26.902049 -0.000000 -0.000000
RightUpLeg -0.467096 -12.130625 -0.064200
RightLeg -2.662321 -0.000000 0.000000
RightFoot -19.992774 -20.756433 17.103014
RightToeBase 25.471751 -0.000000 -0.000000
335
root 18.807511 35.524564 -21.282730 -173.425636 -1.303092 -178.333801
Spine -5.984112 -2.792814 0.320845
Head -5.223319 0.158878 2.170023
LeftShoulder -24.108450 2.291038 13.149325
LeftArm -54.773320 6.920335 -88.074561
LeftForeArm 19.100630 -0.000000 -1.901147
LeftHand -4.538625 -0.000000 -44.837553
LeftHandThumb1 -26.253704 0.000000 33.147579
RightShoulder -27.827561 -35.689451 1.405866
RightArm -17.226814 -19.222462 88.143260
RightForeArm -43.248392 -0.000000 7.167634
RightHand 1.799321 -0.000000 46.460724
RightHandThumb1 -24.326973 -0.000000 -32.862282
LeftUpLeg 1.810986 9.163151 2.797217
LeftLeg -6.346322 -0.000000 0.000000
LeftFoot -20.437270 27.719213 -12.813918
LeftToeBase 26.920124 -0.000000 -0.000000
RightUpLeg -0.431169 -12.146228 -0.071947
RightLeg -2.640502 -0.000000 0.000000
RightFoot -19.999593 -20.781958 17.060694
RightToeBase 25.471319 -0.000000 -0.000000
336
root 18.807859 35.524368 -21.288078 -173.448273 -1.310137 -178.343336
Spine -5.977975 -2.764201 0.326730
Head -5.168122 0.131212 2.120680
LeftShoulder -24.090883 2.325967 13.160962
LeftArm -54.849675 7.111912 -88.325403
LeftForeArm 18.823945 -0.000000 -1.904856
LeftHand -4.696513 0.000000 -44.875294
LeftHandThumb1 -26.253704 0.000000 33.147579
RightShoulder -27.833628 -35.740982 1.409428
RightArm -17.254357 -19.257665 88.161892
RightForeArm -43.215114 -0.000000 7.170325
RightHand 1.784754 -0.000000 46.490855
RightHandThumb1 -24.326973 -0.000000 -32.862282
LeftUpLeg 1.858030 9.052478 2.795854
LeftLeg -6.377672 -0.000000 0.000000
LeftFoot -20.444354 27.822852 -12.837435
LeftToeBase 26.941709 -0.000000 -0.000000
RightUpLeg -0.402312 -12.141761 -0.088042
RightLeg -2.630477 -0.000000 0.000000
RightFoot -20.024627 -20.773747 17.084712
RightToeBase 25.436717 -0.000000 -0.000000
337
root 18.808338 35.524715 -21.293747 -173.462952 -1.330961 -178.342763
Spine -5.983184 -2.759938 0.348504
Head -5.113321 0.124440 2.077765
LeftShoulder -24.087205 2.427283 13.108232
LeftArm -54.850333 7.208957 -88.402099
LeftForeArm 18.630512 -0.000000 -1.892697
LeftHand -4.734743 -0.000000 -44.864344
LeftHandThumb1 -26.253704 0.000000 33.147579
RightShoulder -27.865507 -35.829705 1.447178
RightArm -17.240875 -19.240455 88.127847
RightForeArm -43.239988 -0.000000 7.195024
RightHand 1.805229 -0.000000 46.513301
RightHandThumb1 -24.326973 -0.000000 -32.862282
LeftUpLeg 1.873361 9.021524 2.803372
LeftLeg -6.366178 -0.000000 0.000000
LeftFoot -20.448845 27.825261 -12.852006
LeftToeBase 26.894171 -0.000000 -0.000000
RightUpLeg -0.383036 -12.153801 -0.088789
RightLeg -2.619915 -0.000000 0.000000
RightFoot -20.011179 -20.751501 17.165503
RightToeBase 25.212080 -0.000000 -0.000000
338
root 18.810337 35.524498 -21.300075 -173.470955 -1.342733 -178.342523
Spine -6.000627 -2.742931 0.363222
Head -5.050787 0.122047 2.045130
LeftShoulder -24.085404 2.522835 13.095334
LeftArm -54.826000 7.191916 -88.303898
LeftForeArm 18.539958 -0.000000 -1.939785
LeftHand -4.772371 0.000000 -44.829407
LeftHandThumb1 -26.253704 0.000000 33.147579
RightShoulder -27.908568 -35.915250 1.478622
RightArm -17.225334 -19.150650 88.078266
RightForeArm -43.372011 0.000000 7.185873
RightHand 1.736742 -0.000000 46.474308
RightHandThumb1 -24.326973 -0.000000 -32.862282
LeftUpLeg 1.883674 9.024788 2.814244
LeftLeg -6.349825 -0.000000 0.000000
LeftFoot -20.458368 27.787968 -12.856453
LeftToeBase 26.885516 -0.000000 -0.000000
RightUpLeg -0.360498 -12.167456 -0.090527
RightLeg -2.620101 -0.000000 0.000000
RightFoot -20.036526 -20.772080 17.078019
RightToeBase 25.456228 -0.000000 -0.000000
339
root 18.811854 35.524477 -21.305059 -173.474046 -1.362946 -178.345687
Spine -6.017913 -2.744160 0.375334
Head -5.009299 0.120226 2.040508
LeftShoulder -24.099144 2.583127 13.089827
LeftArm -54.838248 7.129974 -88.137568
LeftForeArm 18.543395 0.000000 -1.967743
LeftHand -4.785598 -0.000000 -44.746842
LeftHandThumb1 -26.253704 0.000000 33.147579
RightShoulder -27.955134 -35.994946 1.514634
RightArm -17.199797 -19.065811 88.025445
RightForeArm -43.505584 -0.000000 7.162340
RightHand 1.768541 -0.000000 46.423706
RightHandThumb1 -24.326973 -0.000000 -32.862282
LeftUpLeg 1.889373 9.013830 2.815590
LeftLeg -6.346706 -0.000000 0.000000
LeftFoot -20.462930 27.775949 -12.870467
LeftToeBase 26.901083 -0.000000 -0.000000
RightUpLeg -0.350701 -12.190866 -0.086712
RightLeg -2.616883 -0.000000 0.000000
RightFoot -20.045898 -20.789907 17.082589
RightToeBase 25.400076 -0.000000 -0.000000
340
root 18.813055 35.524663 -21.311105 -173.470248 -1.398089 -178.340756
Spine -6.048091 -2.749145 0.401510
Head -4.949949 0.095745 2.023618
LeftShoulder -24.103530 2.630175 13.092955
LeftArm -54.864501 7.051666 -87.972033
LeftForeArm 18.577837 -0.000000 -1.991833
LeftHand -4.889261 -0.000000 -44.654606
LeftHandThumb1 -26.253704 0.000000 33.147579
RightShoulder -28.002396 -36.054057 1.541876
RightArm -17.203632 -19.005490 87.982299
RightForeArm -43.605735 -0.000000 7.140418
RightHand 1.750522 -0.000000 46.382559
RightHandThumb1 -24.326973 -0.000000 -32.862282
LeftUpLeg 1.889462 9.001580 2.824978
LeftLeg -6.349711 -0.000000 0.000000
LeftFoot -20.465117 27.770638 -12.868576
LeftToeBase 26.894442 -0.000000 -0.000000
RightUpLeg -0.347321 -12.206831 -0.074902
RightLeg -2.607987 -0.000000 0.000000
RightFoot -20.052544 -20.772749 17.198181
RightToeBase 25.241993 -0.000000 -0.000000
